<?xml version="1.0" encoding="UTF-8"?>
<svg xmlns="http://www.w3.org/2000/svg" xmlns:xlink="http://www.w3.org/1999/xlink" width="2100" height="2100" viewBox="0 0 2100 2100">
<rect x="-210" y="-210" width="2520" height="2520" fill="rgb(99.609375%, 99.609375%, 99.609375%)" fill-opacity="1"/>
<path fill-rule="evenodd" fill="rgb(0%, 0%, 0%)" fill-opacity="1" d="M 1502.03125 1052.5 L 1546.191406 1141.90625 C 1561.75 1173.269531 1575.148438 1194.558594 1586.871094 1206.058594 C 1598.609375 1217.546875 1614.171875 1224.972656 1633.789062 1228.789062 L 1633.789062 1251.769531 L 1280.5 1251.769531 L 1280.5 1228.789062 C 1311.390625 1223.535156 1326.710938 1209.164062 1326.710938 1185.230469 C 1326.710938 1175.171875 1321.898438 1160.585938 1312.578125 1141.433594 L 1268.808594 1052.5 Z M 711.429688 801.921875 L 894.65625 419.28125 C 905.902344 395.828125 911.421875 377.160156 911.421875 363.039062 C 911.421875 341.5 898.019531 326.179688 870.726562 316.851562 L 870.726562 293.871094 L 1210.140625 293.871094 L 1210.140625 316.851562 C 1182.378906 324.738281 1168.71875 338.628906 1168.71875 358.25 C 1168.71875 371.660156 1173.03125 387.210938 1181.878906 404.441406 L 1378.238281 801.921875 L 1152.761719 801.921875 L 1032.53125 537.289062 L 910.046875 801.921875 Z M 791.953125 1052.5 L 749.125 1141.433594 C 740.265625 1160.347656 735.722656 1174.933594 735.722656 1185.707031 C 735.722656 1206.535156 751.53125 1220.90625 782.878906 1228.789062 L 782.878906 1251.769531 L 466.210938 1251.769531 L 466.210938 1228.789062 C 484.886719 1224.972656 499.238281 1218.507812 509.058594 1209.164062 C 518.863281 1199.835938 530.128906 1181.636719 542.558594 1154.597656 L 591.441406 1052.5 Z M 1154.828125 1052.5 L 1154.828125 1731.9375 C 1154.828125 1746.527344 1158.191406 1757.535156 1164.648438 1764.964844 C 1171.109375 1772.378906 1182.589844 1778.363281 1199.351562 1783.148438 L 1199.351562 1806.132812 L 900.628906 1806.132812 L 900.628906 1783.148438 C 917.390625 1778.363281 928.890625 1772.378906 935.351562 1764.964844 C 941.8125 1757.535156 945.152344 1746.527344 945.152344 1731.9375 L 945.152344 1006.191406 L 576.074219 1006.191406 L 576.074219 803.699219 L 599.039062 803.699219 C 604.082031 820.691406 610.304688 832.199219 617.480469 838.660156 C 624.894531 845.121094 635.425781 848.21875 649.316406 848.21875 L 1449.96875 848.21875 C 1464.320312 848.21875 1475.328125 845.121094 1482.761719 838.660156 C 1490.171875 832.199219 1496.398438 820.691406 1500.941406 803.699219 L 1523.929688 803.699219 L 1523.929688 1006.191406 L 1154.828125 1006.191406 L 1154.828125 1052.5 "/>
</svg>
